<svg width="13" height="13" viewBox="0 0 13 13" fill="none" xmlns="http://www.w3.org/2000/svg">
<g clip-path="url(#clip0_7158_31)">
<path d="M12.9938 10.2572C13.0213 10.4683 12.957 10.6518 12.8011 10.8077L10.9708 12.6242C10.8882 12.716 10.7804 12.794 10.6474 12.8582C10.5143 12.9225 10.3836 12.9637 10.2552 12.9821C10.246 12.9821 10.2184 12.9844 10.1725 12.989C10.1267 12.9936 10.0671 12.9959 9.9937 12.9959C9.81934 12.9959 9.53719 12.9661 9.14726 12.9064C8.75733 12.8468 8.28027 12.7 7.71606 12.4661C7.15172 12.2321 6.51181 11.8811 5.7962 11.4132C5.08058 10.9454 4.31905 10.3031 3.51167 9.48654C2.86944 8.85348 2.3373 8.24794 1.91526 7.66995C1.49322 7.09192 1.15375 6.55749 0.896858 6.06664C0.639941 5.57578 0.447271 5.13081 0.318824 4.7317C0.190377 4.3326 0.103216 3.98855 0.0573424 3.69954C0.0114685 3.41053 -0.00688109 3.18346 0.0022937 3.01831C0.0114685 2.85317 0.0160559 2.76142 0.0160559 2.74307C0.0344055 2.61462 0.075692 2.48388 0.139916 2.35085C0.204139 2.21781 0.282125 2.11001 0.373873 2.02744L2.20424 0.197065C2.33269 0.068618 2.47949 0.00439453 2.64463 0.00439453C2.7639 0.00439453 2.86942 0.0388 2.96116 0.107611C3.05291 0.176422 3.1309 0.261289 3.19512 0.362211L4.66767 3.15593C4.75025 3.30273 4.77318 3.46329 4.73648 3.63761C4.69979 3.81193 4.6218 3.95873 4.50253 4.078L3.82818 4.75235C3.80983 4.7707 3.79377 4.80051 3.78001 4.8418C3.76625 4.88309 3.75937 4.91749 3.75937 4.94502C3.79607 5.13769 3.87864 5.35788 4.00709 5.6056C4.11719 5.8258 4.28692 6.09416 4.51629 6.41069C4.74566 6.72722 5.07136 7.0919 5.4934 7.50476C5.90627 7.92685 6.27326 8.2548 6.59438 8.4888C6.91543 8.72267 7.18388 8.89476 7.39949 9.00486C7.6151 9.11496 7.78024 9.18148 7.89491 9.20435L8.06689 9.23877C8.08524 9.23877 8.11512 9.23187 8.15636 9.21813C8.19765 9.20435 8.22747 9.18831 8.24584 9.16994L9.03026 8.37173C9.1955 8.22496 9.38808 8.15156 9.6083 8.15156C9.76431 8.15156 9.88811 8.17906 9.97985 8.23413H9.99359L12.6497 9.80302C12.8424 9.92239 12.9571 10.0737 12.9938 10.2572Z" fill="#cac305"/>
</g>
<defs>
<clipPath id="clip0_7158_31">
<rect width="13" height="13" fill="white"/>
</clipPath>
</defs>
</svg>
