<svg width="34" height="34" viewBox="0 0 34 34" fill="none" xmlns="http://www.w3.org/2000/svg">
<g clip-path="url(#clip0_7158_310)">
<path d="M33.5 17C33.5 26.1127 26.1127 33.5 17 33.5C7.8873 33.5 0.5 26.1127 0.5 17C0.5 7.8873 7.8873 0.5 17 0.5C26.1127 0.5 33.5 7.8873 33.5 17Z" stroke="white"/>
<path d="M24.8363 21.8585C24.4381 21.9144 22.5032 21.8585 22.4026 21.8585C21.9023 21.8635 21.4202 21.6715 21.0605 21.3239C20.6511 20.9302 20.2821 20.4962 19.8906 20.0869C19.7718 19.9621 19.6439 19.8462 19.5081 19.7402C19.1882 19.4964 18.8728 19.5523 18.723 19.9281C18.6056 20.3354 18.5248 20.7523 18.4814 21.174C18.4744 21.3516 18.3972 21.5192 18.2668 21.64C18.1364 21.7608 17.9634 21.8248 17.7857 21.8182C17.5218 21.8316 17.2578 21.8383 16.9961 21.8316C16.0441 21.8267 15.1067 21.5967 14.2605 21.1606C13.3469 20.65 12.5506 19.9536 11.923 19.1161C10.9188 17.7901 10.051 16.3663 9.33271 14.8661C9.29468 14.79 8.54087 13.1862 8.52297 13.1124C8.47624 13.0073 8.47177 12.8883 8.51051 12.78C8.54925 12.6717 8.62821 12.5824 8.731 12.5308C8.86521 12.4794 11.3503 12.5308 11.3906 12.5308C11.5757 12.5291 11.7564 12.5865 11.9065 12.6947C12.0566 12.803 12.1682 12.9564 12.2249 13.1325C12.6846 14.3043 13.3122 15.4029 14.0882 16.3939C14.1965 16.5274 14.3239 16.6442 14.4663 16.7406C14.503 16.776 14.5485 16.801 14.598 16.8129C14.6476 16.8249 14.6995 16.8233 14.7483 16.8085C14.7971 16.7937 14.8411 16.7661 14.8757 16.7286C14.9102 16.6911 14.9341 16.645 14.9449 16.5952C15.0433 16.2718 15.1011 15.9374 15.1172 15.5998C15.1306 14.9287 15.1172 14.4814 15.0792 13.8103C15.0927 13.5816 15.0155 13.3568 14.8643 13.1847C14.7131 13.0126 14.5002 12.907 14.2717 12.891C14.0748 12.8574 14.048 12.6964 14.1844 12.5353C14.4461 12.202 14.8085 12.1483 15.2022 12.1282C15.7972 12.0946 16.3944 12.1282 16.9917 12.1282H17.1214C17.3836 12.1275 17.6452 12.1538 17.9021 12.2065C18.0522 12.2372 18.1885 12.3157 18.2905 12.4302C18.3924 12.5447 18.4547 12.689 18.468 12.8417C18.4981 13.0108 18.5116 13.1823 18.5082 13.354C18.4926 14.0854 18.4568 14.8169 18.4478 15.5506C18.4425 15.8404 18.4688 16.1299 18.5261 16.414C18.6134 16.8032 18.8796 16.9016 19.1524 16.6175C19.4925 16.2525 19.8043 15.8622 20.0852 15.4499C20.5903 14.6992 21.0061 13.8922 21.3244 13.0453C21.4967 12.6114 21.6286 12.5152 22.0961 12.5152H24.7334C24.8907 12.5125 25.0476 12.5337 25.1986 12.5778C25.2519 12.592 25.3018 12.617 25.345 12.6513C25.3883 12.6856 25.424 12.7284 25.45 12.777C25.476 12.8257 25.4917 12.8792 25.4962 12.9342C25.5007 12.9892 25.4938 13.0445 25.476 13.0967C25.3218 13.6579 25.0572 14.1826 24.6976 14.6402C24.1607 15.3985 23.5971 16.1389 23.0468 16.877C22.9772 16.9736 22.9137 17.0744 22.8567 17.179C22.6509 17.5503 22.6665 17.7606 22.964 18.0737C23.4427 18.5658 23.9549 19.0289 24.4157 19.5344C24.7556 19.9027 25.0624 20.3002 25.3328 20.7221C25.6728 21.2679 25.4648 21.769 24.8363 21.8585V21.8585Z" fill="white"/>
</g>
<defs>
<clipPath id="clip0_7158_310">
<rect width="34" height="34" fill="white"/>
</clipPath>
</defs>
</svg>
