<svg width="34" height="34" viewBox="0 0 34 34" fill="none" xmlns="http://www.w3.org/2000/svg">
<g clip-path="url(#clip0_7158_292)">
<path d="M33.5 17C33.5 26.1127 26.1127 33.5 17 33.5C7.8873 33.5 0.5 26.1127 0.5 17C0.5 7.8873 7.8873 0.5 17 0.5C26.1127 0.5 33.5 7.8873 33.5 17Z" stroke="white"/>
<path d="M21.3083 15.3917L21.0264 17.7583C21.0143 17.8682 20.9618 17.9697 20.8792 18.0433C20.7966 18.1168 20.6897 18.1571 20.5791 18.1564H18.1186V25.1801C18.1192 25.264 18.0866 25.3447 18.0279 25.4046C17.9692 25.4645 17.8892 25.4988 17.8054 25.5H15.2979C15.2562 25.4994 15.215 25.4906 15.1767 25.4741C15.1384 25.4576 15.1037 25.4337 15.0746 25.4038C15.0455 25.3739 15.0226 25.3386 15.0072 25.2998C14.9918 25.261 14.9841 25.2196 14.9847 25.1779L14.9982 18.1564H13.1349C13.0162 18.1564 12.9024 18.1093 12.8185 18.0254C12.7346 17.9415 12.6875 17.8277 12.6875 17.7091V15.3425C12.6875 15.2238 12.7346 15.1101 12.8185 15.0262C12.9024 14.9423 13.0162 14.8951 13.1349 14.8951H14.987V12.6001C14.987 9.945 16.5662 8.5 18.8791 8.5H20.7737C20.8923 8.5 21.0061 8.54713 21.09 8.63103C21.1739 8.71493 21.2211 8.82872 21.2211 8.94737V10.9404C21.2211 11.059 21.1739 11.1728 21.09 11.2567C21.0061 11.3406 20.8923 11.3878 20.7737 11.3878H19.6128C18.3557 11.4079 18.1186 12.0096 18.1186 12.9088V14.8884H20.8721C20.9349 14.8895 20.9968 14.9038 21.0537 14.9304C21.1107 14.957 21.1614 14.9952 21.2025 15.0427C21.2437 15.0902 21.2743 15.1458 21.2926 15.206C21.3108 15.2661 21.3162 15.3294 21.3083 15.3917V15.3917Z" fill="white"/>
</g>
<defs>
<clipPath id="clip0_7158_292">
<rect width="34" height="34" fill="white"/>
</clipPath>
</defs>
</svg>
