<svg width="34" height="34" viewBox="0 0 34 34" fill="none" xmlns="http://www.w3.org/2000/svg">
<g clip-path="url(#clip0_7158_297)">
<path d="M33.5 17C33.5 26.1127 26.1127 33.5 17 33.5C7.8873 33.5 0.5 26.1127 0.5 17C0.5 7.8873 7.8873 0.5 17 0.5C26.1127 0.5 33.5 7.8873 33.5 17Z" stroke="white"/>
<path d="M25.1024 12.9113C24.7624 11.8555 23.6373 11.2314 22.5927 11.086C18.8691 10.6901 15.1141 10.6901 11.3906 11.086C10.3549 11.2314 9.22977 11.8644 8.88977 12.9113C8.35966 15.6122 8.35966 18.3905 8.88977 21.0914C9.23872 22.145 10.3639 22.7713 11.4085 22.9167C15.1321 23.3103 18.8869 23.3103 22.6106 22.9167C23.6462 22.7713 24.7714 22.136 25.1114 21.0914C25.6385 18.3899 25.6355 15.6116 25.1024 12.9113V12.9113ZM14.9673 20.2571V13.7434L20.2708 17.0002C18.4836 18.0985 16.7478 19.1677 14.9673 20.2571Z" fill="white"/>
</g>
<defs>
<clipPath id="clip0_7158_297">
<rect width="34" height="34" fill="white"/>
</clipPath>
</defs>
</svg>
