<svg width="34" height="34" viewBox="0 0 34 34" fill="none" xmlns="http://www.w3.org/2000/svg">
<g clip-path="url(#clip0_7756_5398)">
<path d="M33.5 17C33.5 26.1127 26.1127 33.5 17 33.5C7.8873 33.5 0.5 26.1127 0.5 17C0.5 7.8873 7.8873 0.5 17 0.5C26.1127 0.5 33.5 7.8873 33.5 17Z" stroke="white"/>
<path d="M7.78246 16.6315L24.1733 10.3117C24.934 10.0369 25.5985 10.4973 25.352 11.6476L25.3534 11.6462L22.5625 24.7943C22.3557 25.7265 21.8018 25.9531 21.0269 25.514L16.7769 22.3817L14.727 24.3566C14.5003 24.5832 14.309 24.7745 13.8699 24.7745L14.1716 20.4494L22.0483 13.3335C22.3911 13.0317 21.9718 12.8617 21.5199 13.1621L11.786 19.2906L7.5898 17.9816C6.67888 17.6926 6.65905 17.0706 7.78246 16.6315V16.6315Z" fill="white"/>
</g>
<defs>
<clipPath id="clip0_7756_5398">
<rect width="34" height="34" fill="white"/>
</clipPath>
</defs>
</svg>
