<svg width="34" height="34" viewBox="0 0 34 34" fill="none" xmlns="http://www.w3.org/2000/svg">
<g clip-path="url(#clip0_7158_302)">
<path d="M33.5 17C33.5 26.1127 26.1127 33.5 17 33.5C7.8873 33.5 0.5 26.1127 0.5 17C0.5 7.8873 7.8873 0.5 17 0.5C26.1127 0.5 33.5 7.8873 33.5 17Z" stroke="white"/>
<path d="M20.4358 8.5H13.5642C12.2216 8.50178 10.9346 9.03589 9.98523 9.98523C9.03589 10.9346 8.50178 12.2216 8.5 13.5642V20.4358C8.50178 21.7784 9.03589 23.0654 9.98523 24.0148C10.9346 24.9641 12.2216 25.4982 13.5642 25.5H20.4358C21.7785 25.4988 23.066 24.9649 24.0154 24.0154C24.9649 23.066 25.4988 21.7785 25.5 20.4358V13.5642C25.4982 12.2216 24.9641 10.9346 24.0148 9.98523C23.0654 9.03589 21.7784 8.50178 20.4358 8.5V8.5ZM23.7911 20.4358C23.7911 21.3257 23.4376 22.1791 22.8083 22.8083C22.1791 23.4376 21.3257 23.7911 20.4358 23.7911H13.5642C12.6743 23.7911 11.8209 23.4376 11.1917 22.8083C10.5624 22.1791 10.2089 21.3257 10.2089 20.4358V13.5642C10.2089 12.6743 10.5624 11.8209 11.1917 11.1917C11.8209 10.5624 12.6743 10.2089 13.5642 10.2089H20.4358C21.3257 10.2089 22.1791 10.5624 22.8083 11.1917C23.4376 11.8209 23.7911 12.6743 23.7911 13.5642V20.4358Z" fill="white"/>
<path d="M17.0014 12.6045C16.1315 12.6041 15.2809 12.8616 14.5574 13.3447C13.8339 13.8277 13.2699 14.5145 12.9367 15.3182C12.6036 16.1218 12.5163 17.0062 12.686 17.8595C12.8556 18.7128 13.2744 19.4966 13.8896 20.1117C14.5048 20.7269 15.2885 21.1458 16.1418 21.3154C16.9951 21.485 17.8795 21.3977 18.6831 21.0646C19.4868 20.7315 20.1736 20.1675 20.6566 19.4439C21.1397 18.7204 21.3973 17.8698 21.3968 16.9999C21.3956 15.8345 20.9322 14.7172 20.1081 13.8932C19.2841 13.0691 18.1668 12.6057 17.0014 12.6045V12.6045ZM17.0014 19.6841C16.4705 19.6841 15.9516 19.5267 15.5102 19.2317C15.0687 18.9368 14.7247 18.5176 14.5215 18.0271C14.3184 17.5366 14.2652 16.9969 14.3688 16.4762C14.4724 15.9555 14.728 15.4773 15.1034 15.1019C15.4788 14.7265 15.9571 14.4708 16.4778 14.3673C16.9985 14.2637 17.5382 14.3168 18.0286 14.52C18.5191 14.7232 18.9383 15.0672 19.2333 15.5086C19.5282 15.95 19.6856 16.469 19.6856 16.9999C19.6856 17.7118 19.4028 18.3945 18.8995 18.8979C18.3961 19.4013 17.7133 19.6841 17.0014 19.6841Z" fill="white"/>
<path d="M21.423 13.6918C22.0234 13.6918 22.5101 13.2051 22.5101 12.6047C22.5101 12.0043 22.0234 11.5176 21.423 11.5176C20.8226 11.5176 20.3359 12.0043 20.3359 12.6047C20.3359 13.2051 20.8226 13.6918 21.423 13.6918Z" fill="white"/>
</g>
<defs>
<clipPath id="clip0_7158_302">
<rect width="34" height="34" fill="white"/>
</clipPath>
</defs>
</svg>
